<mxfile host="Electron" agent="Mozilla/5.0 (Windows NT 10.0; Win64; x64) AppleWebKit/537.36 (KHTML, like Gecko) draw.io/26.1.1 Chrome/132.0.6834.210 Electron/34.3.3 Safari/537.36" version="26.1.1">
  <diagram name="Страница — 1" id="HgyuBZxiK9CZAV8U_u8S">
    <mxGraphModel dx="658" dy="453" grid="1" gridSize="10" guides="1" tooltips="1" connect="1" arrows="1" fold="1" page="1" pageScale="1" pageWidth="827" pageHeight="1169" math="0" shadow="0">
      <root>
        <mxCell id="0" />
        <mxCell id="1" parent="0" />
        <mxCell id="zsXY4bgvKtifGmnUhQA3-1" value="Пользователь" style="shape=umlActor;verticalLabelPosition=bottom;verticalAlign=top;html=1;outlineConnect=0;" vertex="1" parent="1">
          <mxGeometry x="410" y="310" width="30" height="60" as="geometry" />
        </mxCell>
        <mxCell id="zsXY4bgvKtifGmnUhQA3-2" value="Добавить/удалить привычку" style="ellipse;whiteSpace=wrap;html=1;" vertex="1" parent="1">
          <mxGeometry x="310" y="210" width="110" height="60" as="geometry" />
        </mxCell>
        <mxCell id="zsXY4bgvKtifGmnUhQA3-3" value="" style="endArrow=none;html=1;rounded=0;" edge="1" parent="1" source="zsXY4bgvKtifGmnUhQA3-2" target="zsXY4bgvKtifGmnUhQA3-1">
          <mxGeometry width="50" height="50" relative="1" as="geometry">
            <mxPoint x="390" y="380" as="sourcePoint" />
            <mxPoint x="440" y="330" as="targetPoint" />
          </mxGeometry>
        </mxCell>
        <mxCell id="zsXY4bgvKtifGmnUhQA3-4" value="Регистрация и авторизация" style="ellipse;whiteSpace=wrap;html=1;" vertex="1" parent="1">
          <mxGeometry x="460" y="220" width="110" height="60" as="geometry" />
        </mxCell>
        <mxCell id="zsXY4bgvKtifGmnUhQA3-5" value="" style="endArrow=none;html=1;rounded=0;" edge="1" parent="1" source="zsXY4bgvKtifGmnUhQA3-1" target="zsXY4bgvKtifGmnUhQA3-4">
          <mxGeometry width="50" height="50" relative="1" as="geometry">
            <mxPoint x="390" y="380" as="sourcePoint" />
            <mxPoint x="440" y="330" as="targetPoint" />
          </mxGeometry>
        </mxCell>
        <mxCell id="zsXY4bgvKtifGmnUhQA3-6" value="Просмотр расписания и привычек" style="ellipse;whiteSpace=wrap;html=1;" vertex="1" parent="1">
          <mxGeometry x="540" y="310" width="110" height="60" as="geometry" />
        </mxCell>
        <mxCell id="zsXY4bgvKtifGmnUhQA3-7" value="" style="endArrow=none;html=1;rounded=0;" edge="1" parent="1" source="zsXY4bgvKtifGmnUhQA3-1" target="zsXY4bgvKtifGmnUhQA3-6">
          <mxGeometry width="50" height="50" relative="1" as="geometry">
            <mxPoint x="390" y="380" as="sourcePoint" />
            <mxPoint x="440" y="330" as="targetPoint" />
          </mxGeometry>
        </mxCell>
        <mxCell id="zsXY4bgvKtifGmnUhQA3-8" value="Внесение нового расписания" style="ellipse;whiteSpace=wrap;html=1;" vertex="1" parent="1">
          <mxGeometry x="460" y="400" width="110" height="60" as="geometry" />
        </mxCell>
        <mxCell id="zsXY4bgvKtifGmnUhQA3-9" value="" style="endArrow=none;html=1;rounded=0;" edge="1" parent="1" source="zsXY4bgvKtifGmnUhQA3-1" target="zsXY4bgvKtifGmnUhQA3-8">
          <mxGeometry width="50" height="50" relative="1" as="geometry">
            <mxPoint x="390" y="380" as="sourcePoint" />
            <mxPoint x="440" y="330" as="targetPoint" />
          </mxGeometry>
        </mxCell>
        <mxCell id="zsXY4bgvKtifGmnUhQA3-10" value="Изменение настроек уведомлений" style="ellipse;whiteSpace=wrap;html=1;" vertex="1" parent="1">
          <mxGeometry x="280" y="390" width="110" height="60" as="geometry" />
        </mxCell>
        <mxCell id="zsXY4bgvKtifGmnUhQA3-11" value="" style="endArrow=none;html=1;rounded=0;" edge="1" parent="1" source="zsXY4bgvKtifGmnUhQA3-10" target="zsXY4bgvKtifGmnUhQA3-1">
          <mxGeometry width="50" height="50" relative="1" as="geometry">
            <mxPoint x="390" y="380" as="sourcePoint" />
            <mxPoint x="440" y="330" as="targetPoint" />
          </mxGeometry>
        </mxCell>
        <mxCell id="zsXY4bgvKtifGmnUhQA3-12" value="Получение уведомлений" style="ellipse;whiteSpace=wrap;html=1;" vertex="1" parent="1">
          <mxGeometry x="230" y="290" width="110" height="60" as="geometry" />
        </mxCell>
        <mxCell id="zsXY4bgvKtifGmnUhQA3-14" value="" style="endArrow=none;html=1;rounded=0;" edge="1" parent="1" source="zsXY4bgvKtifGmnUhQA3-12" target="zsXY4bgvKtifGmnUhQA3-1">
          <mxGeometry width="50" height="50" relative="1" as="geometry">
            <mxPoint x="380" y="330" as="sourcePoint" />
            <mxPoint x="408" y="376" as="targetPoint" />
          </mxGeometry>
        </mxCell>
      </root>
    </mxGraphModel>
  </diagram>
</mxfile>
